<?xml version="1.0" encoding="UTF-8"?>
<!DOCTYPE svg PUBLIC "-//W3C//DTD SVG 1.1//EN" "http://www.w3.org/Graphics/SVG/1.1/DTD/svg11.dtd">
<svg xmlns="http://www.w3.org/2000/svg" version="1.1" width="107px" height="107px" style="shape-rendering:geometricPrecision; text-rendering:geometricPrecision; image-rendering:optimizeQuality; fill-rule:evenodd; clip-rule:evenodd" xmlns:xlink="http://www.w3.org/1999/xlink">
<g><path style="opacity:1" fill="#fdfdfd" d="M -0.5,-0.5 C 35.1667,-0.5 70.8333,-0.5 106.5,-0.5C 106.5,35.1667 106.5,70.8333 106.5,106.5C 70.8333,106.5 35.1667,106.5 -0.5,106.5C -0.5,70.8333 -0.5,35.1667 -0.5,-0.5 Z"/></g>
<g><path style="opacity:1" fill="#62b9d8" d="M 59.5,30.5 C 58.2618,29.5876 56.9285,29.4209 55.5,30C 53.2941,32.0367 51.2941,34.2034 49.5,36.5C 45.9046,37.6112 42.5712,36.9445 39.5,34.5C 44.5442,28.4543 50.2109,23.121 56.5,18.5C 57.4419,18.6082 58.2753,18.9415 59,19.5C 59.4986,23.1516 59.6653,26.8183 59.5,30.5 Z"/></g>
<g><path style="opacity:1" fill="#227983" d="M 59.5,30.5 C 59.5,32.8333 59.5,35.1667 59.5,37.5C 56.1667,37.5 52.8333,37.5 49.5,37.5C 49.5,37.1667 49.5,36.8333 49.5,36.5C 51.2941,34.2034 53.2941,32.0367 55.5,30C 56.9285,29.4209 58.2618,29.5876 59.5,30.5 Z"/></g>
<g><path style="opacity:1" fill="#3db4df" d="M 39.5,34.5 C 42.5712,36.9445 45.9046,37.6112 49.5,36.5C 49.5,36.8333 49.5,37.1667 49.5,37.5C 50.9516,38.3019 52.6183,38.8019 54.5,39C 51.2199,43.2796 46.8866,45.2796 41.5,45C 44.3647,45.1829 47.0314,45.6829 49.5,46.5C 45.1539,46.6657 40.8206,46.499 36.5,46C 33.9133,44.4749 33.0799,42.3083 34,39.5C 35.7038,37.6266 37.5372,35.9599 39.5,34.5 Z"/></g>
<g><path style="opacity:1" fill="#1f96c0" d="M 49.5,37.5 C 52.8333,37.5 56.1667,37.5 59.5,37.5C 64.6605,38.6802 65.8272,41.6802 63,46.5C 61.9609,47.7101 60.7942,48.7101 59.5,49.5C 59.5858,48.5041 59.2524,47.6708 58.5,47C 55.5184,46.502 52.5184,46.3354 49.5,46.5C 47.0314,45.6829 44.3647,45.1829 41.5,45C 46.8866,45.2796 51.2199,43.2796 54.5,39C 52.6183,38.8019 50.9516,38.3019 49.5,37.5 Z"/></g>
<g><path style="opacity:1" fill="#287d86" d="M 49.5,46.5 C 52.5184,46.3354 55.5184,46.502 58.5,47C 59.2524,47.6708 59.5858,48.5041 59.5,49.5C 58.5,51.1667 57.1667,52.5 55.5,53.5C 53.9583,51.0465 51.9583,50.3799 49.5,51.5C 49.5,49.8333 49.5,48.1667 49.5,46.5 Z"/></g>
<g><path style="opacity:1" fill="#469fa6" d="M 55.5,53.5 C 54.2921,56.0442 52.2921,57.3775 49.5,57.5C 49.5,55.5 49.5,53.5 49.5,51.5C 51.9583,50.3799 53.9583,51.0465 55.5,53.5 Z"/></g>
<g><path style="opacity:1" fill="#64959c" d="M 30.5,66.5 C 29.5318,68.6074 29.1984,70.9407 29.5,73.5C 28.1997,70.9759 28.1997,68.3092 29.5,65.5C 30.1067,65.6236 30.44,65.9569 30.5,66.5 Z"/></g>
<g><path style="opacity:1" fill="#709ea5" d="M 35.5,66.5 C 35.56,65.9569 35.8933,65.6236 36.5,65.5C 37.8003,68.3092 37.8003,70.9759 36.5,73.5C 36.8016,70.9407 36.4682,68.6074 35.5,66.5 Z"/></g>
<g><path style="opacity:1" fill="#9bbabf" d="M 40.5,66.5 C 40.3359,69.1873 40.5026,71.854 41,74.5C 41.2492,73.376 41.7492,72.376 42.5,71.5C 43.1067,71.6236 43.44,71.9569 43.5,72.5C 42.596,73.209 42.2627,74.209 42.5,75.5C 41.5,75.5 40.5,75.5 39.5,75.5C 39.19,72.2869 39.5233,69.2869 40.5,66.5 Z"/></g>
<g><path style="opacity:1" fill="#88d5f5" d="M 85.5,65.5 C 86.5,65.5 87.5,65.5 88.5,65.5C 88.5,68.8333 88.5,72.1667 88.5,75.5C 87.5,75.5 86.5,75.5 85.5,75.5C 85.5,72.1667 85.5,68.8333 85.5,65.5 Z"/></g>
<g><path style="opacity:1" fill="#9adef7" d="M 96.5,66.5 C 94.8333,66.5 93.1667,66.5 91.5,66.5C 91.3359,69.1873 91.5026,71.854 92,74.5C 92.2492,73.376 92.7492,72.376 93.5,71.5C 94.1067,71.6236 94.44,71.9569 94.5,72.5C 93.596,73.209 93.2627,74.209 93.5,75.5C 92.5,75.5 91.5,75.5 90.5,75.5C 90.5,72.1667 90.5,68.8333 90.5,65.5C 92.7354,65.2053 94.7354,65.5386 96.5,66.5 Z"/></g>
<g><path style="opacity:1" fill="#2b616d" d="M 49.5,65.5 C 51.924,65.1924 54.2573,65.5258 56.5,66.5C 55.0468,69.2976 54.0468,72.2976 53.5,75.5C 52.52,72.9135 52.1866,70.2469 52.5,67.5C 50.8212,67.7148 49.8212,67.0481 49.5,65.5 Z"/></g>
<g><path style="opacity:1" fill="#76a1a8" d="M 14.5,66.5 C 12.5,66.5 10.5,66.5 8.5,66.5C 8.33591,69.1873 8.50258,71.854 9,74.5C 9.23209,73.2625 9.73209,72.2625 10.5,71.5C 10.5,72.8333 10.5,74.1667 10.5,75.5C 9.5,75.5 8.5,75.5 7.5,75.5C 7.5,72.1667 7.5,68.8333 7.5,65.5C 10.0593,65.1984 12.3926,65.5318 14.5,66.5 Z"/></g>
<g><path style="opacity:1" fill="#1b5b67" d="M 14.5,66.5 C 12.9581,67.1635 11.2914,67.8302 9.5,68.5C 11.1667,69.1667 12.8333,69.8333 14.5,70.5C 13.3112,71.4287 11.9778,71.762 10.5,71.5C 9.73209,72.2625 9.23209,73.2625 9,74.5C 8.50258,71.854 8.33591,69.1873 8.5,66.5C 10.5,66.5 12.5,66.5 14.5,66.5 Z"/></g>
<g><path style="opacity:1" fill="#25636f" d="M 59.5,65.5 C 61.1765,66.1834 61.8432,67.5168 61.5,69.5C 62.8333,69.5 64.1667,69.5 65.5,69.5C 65.238,68.0222 65.5713,66.6888 66.5,65.5C 67.8333,68.8333 67.8333,72.1667 66.5,75.5C 65.5713,74.3112 65.238,72.9778 65.5,71.5C 64.1667,71.5 62.8333,71.5 61.5,71.5C 61.762,72.9778 61.4287,74.3112 60.5,75.5C 59.513,72.2317 59.1796,68.8984 59.5,65.5 Z"/></g>
<g><path style="opacity:1" fill="#1f5865" d="M 43.5,72.5 C 43.44,71.9569 43.1067,71.6236 42.5,71.5C 41.7492,72.376 41.2492,73.376 41,74.5C 40.5026,71.854 40.3359,69.1873 40.5,66.5C 42.8169,65.0584 44.9836,65.3918 47,67.5C 47.7112,69.3668 47.2112,70.8668 45.5,72C 47.2603,72.9653 47.5937,74.132 46.5,75.5C 45.265,74.6602 44.265,73.6602 43.5,72.5 Z"/></g>
<g><path style="opacity:1" fill="#9ebcc1" d="M 41.5,67.5 C 42.8333,67.5 44.1667,67.5 45.5,67.5C 45.5,68.5 45.5,69.5 45.5,70.5C 44.1667,70.5 42.8333,70.5 41.5,70.5C 41.5,69.5 41.5,68.5 41.5,67.5 Z"/></g>
<g><path style="opacity:1" fill="#306f7a" d="M 74.5,69.5 C 76.288,69.2148 77.9547,69.5481 79.5,70.5C 78.6667,70.8333 77.8333,71.1667 77,71.5C 75.6244,71.3158 74.7911,70.6491 74.5,69.5 Z"/></g>
<g><path style="opacity:1" fill="#46c0ef" d="M 96.5,66.5 C 99.1239,68.1978 99.1239,70.0312 96.5,72C 98.2603,72.9653 98.5937,74.132 97.5,75.5C 96.1451,74.8118 95.1451,73.8118 94.5,72.5C 94.44,71.9569 94.1067,71.6236 93.5,71.5C 92.7492,72.376 92.2492,73.376 92,74.5C 91.5026,71.854 91.3359,69.1873 91.5,66.5C 93.1667,66.5 94.8333,66.5 96.5,66.5 Z"/></g>
<g><path style="opacity:1" fill="#bae8f9" d="M 92.5,67.5 C 97.8333,68.5 97.8333,69.5 92.5,70.5C 92.5,69.5 92.5,68.5 92.5,67.5 Z"/></g>
<g><path style="opacity:1" fill="#255d6a" d="M 19.5,65.5 C 26.8211,66.3193 28.1545,69.486 23.5,75C 16.075,74.4845 14.7416,71.3178 19.5,65.5 Z"/></g>
<g><path style="opacity:1" fill="#d8e4e6" d="M 19.5,67.5 C 23.6917,67.4028 25.0251,69.2361 23.5,73C 18.7282,73.8104 17.3948,71.9771 19.5,67.5 Z"/></g>
<g><path style="opacity:1" fill="#1b5360" d="M 30.5,66.5 C 30.3379,68.5273 30.5045,70.5273 31,72.5C 32.3333,73.8333 33.6667,73.8333 35,72.5C 35.4955,70.5273 35.6621,68.5273 35.5,66.5C 36.4682,68.6074 36.8016,70.9407 36.5,73.5C 35.8658,74.9468 34.6991,75.6134 33,75.5C 31.3009,75.6134 30.1342,74.9468 29.5,73.5C 29.1984,70.9407 29.5318,68.6074 30.5,66.5 Z"/></g>
<g><path style="opacity:1" fill="#b9baba" d="M 56.5,79.5 C 57.5862,79.62 58.2528,80.2867 58.5,81.5C 58.1667,82.1667 57.8333,82.8333 57.5,83.5C 56.5713,82.3112 56.238,80.9778 56.5,79.5 Z"/></g>
<g><path style="opacity:1" fill="#c5c5c5" d="M 35.5,79.5 C 36.5,79.5 37.5,79.5 38.5,79.5C 38.7852,81.288 38.4519,82.9547 37.5,84.5C 35.7826,83.3315 35.1159,81.6648 35.5,79.5 Z"/></g>
<g><path style="opacity:1" fill="#bebfbf" d="M 77.5,79.5 C 78.8471,80.1712 80.0138,80.1712 81,79.5C 81.49,80.7932 81.6567,82.1266 81.5,83.5C 80.1667,83.5 78.8333,83.5 77.5,83.5C 77.5,82.1667 77.5,80.8333 77.5,79.5 Z"/></g>
<g><path style="opacity:1" fill="#c5c5c5" d="M 45.5,79.5 C 47.5412,79.8541 49.3745,79.8541 51,79.5C 51.49,80.7932 51.6567,82.1266 51.5,83.5C 49.5,83.5 47.5,83.5 45.5,83.5C 45.5,82.1667 45.5,80.8333 45.5,79.5 Z"/></g>
</svg>
